<?xml version="1.0" encoding="UTF-8"?><svg id="Layer_2" xmlns="http://www.w3.org/2000/svg" viewBox="0 0 104.99 127.6"><defs><style>.cls-1{fill:#fff;}</style></defs><g id="Layer_1-2"><path class="cls-1" d="m89.25,28.76c-10.01-9.81-23.24-15.13-37.27-15.01-5.68.06-11.14,1.02-16.25,2.75L29.31,0v19.16C11.79,27.82-.2,45.95,0,66.76c.14,14.03,5.73,27.16,15.74,36.97,9.89,9.7,22.91,15.02,36.74,15.02h.53c1.09-.01,2.17-.06,3.24-.13v8.98h5.38v-9.65c2.85-.5,5.62-1.23,8.29-2.17l5.67,11.82h5.92l-6.65-13.86c17.81-8.42,30.13-26.57,30.13-47.48v-.53c-.13-14.02-5.72-27.15-15.74-36.97Zm-54.94-2.1l14.01,36.01-14.01.15V26.66Zm27.32,86.2v-14.35l6.11,12.73c-1.98.67-4.02,1.22-6.11,1.62Zm11.07-3.63l-6.24-13,12.7-28.82-2-.34h-3.84l-11.69,27.19v-27.19h-5.38v46.53c-1.09.09-2.19.14-3.29.15-12.68.14-24.66-4.7-33.72-13.59-9.06-8.88-14.12-20.76-14.24-33.44-.18-17.95,9.67-33.69,24.31-41.91v75.64h5v-32.62l21.29-.24-18.06-46.43c4.56-1.52,9.43-2.36,14.49-2.41h.48c12.51,0,24.3,4.81,33.24,13.58,4.53,4.45,8.06,9.64,10.47,15.3,2.41,5.67,3.71,11.81,3.77,18.15.19,19.13-11.02,35.77-27.29,43.45Z"/></g></svg>